<?xml version="1.0" standalone="no"?><!DOCTYPE svg PUBLIC "-//W3C//DTD SVG 1.1//EN" "http://www.w3.org/Graphics/SVG/1.1/DTD/svg11.dtd"><svg t="1749050473429" class="icon" viewBox="0 0 1024 1024" version="1.1" xmlns="http://www.w3.org/2000/svg" p-id="7216" xmlns:xlink="http://www.w3.org/1999/xlink" width="200" height="200"><path d="M590.4 536S776 432 779.2 433.6a270.448 270.448 0 0 0-328-195.2A266.192 266.192 0 0 0 292.8 352c1.6 0 297.6 184 297.6 184z" fill="#0364B8" p-id="7217"></path><path d="M409.6 384A217.488 217.488 0 0 0 296 352h-3.2A216.16 216.16 0 0 0 80 571.2a223.088 223.088 0 0 0 38.4 121.6L416 662.4l174.4-168z" fill="#0F78D4" p-id="7218"></path><path d="M780.8 433.6h-11.2a165.696 165.696 0 0 0-68.8 14.4L592 492.8 710.4 624l214.4 67.2a175.472 175.472 0 0 0-72-238.4 192.848 192.848 0 0 0-72-19.2z" fill="#1490DF" p-id="7219"></path><path d="M769.6 600l-44.8-27.2L622.4 512l-32-19.2-81.6 35.2-158.4 67.2-72 28.8-160 67.2A217.712 217.712 0 0 0 296 784h472a177.84 177.84 0 0 0 155.2-92.8z" fill="#28A8EA" p-id="7220"></path></svg>