<?xml version="1.0" standalone="no"?><!DOCTYPE svg PUBLIC "-//W3C//DTD SVG 1.1//EN" "http://www.w3.org/Graphics/SVG/1.1/DTD/svg11.dtd"><svg t="1748855378498" class="icon" viewBox="0 0 1024 1024" version="1.1" xmlns="http://www.w3.org/2000/svg" p-id="12296" xmlns:xlink="http://www.w3.org/1999/xlink" width="200" height="200"><path d="M352 1024H42.666667c-23.466667 0-42.666667-19.2-42.666667-42.666667V42.666667C0 19.2 19.2 0 42.666667 0h309.333333c23.466667 0 42.666667 19.2 42.666667 42.666667v938.666666c0 23.466667-19.2 42.666667-42.666667 42.666667z" fill="#66C6B9" p-id="12297"></path><path d="M277.333333 537.6H117.333333c-17.066667 0-32 14.933333-32 32v337.066667c0 17.066667 14.933333 32 32 32H277.333333c17.066667 0 32-14.933333 32-32V569.6c0-17.066667-12.8-32-32-32z" fill="#FFFFFF" p-id="12298"></path><path d="M128 629.333333h138.666667v38.4H128zM128 718.933333h138.666667v38.4H128zM128 808.533333h138.666667v38.4H128z" fill="#E8EAE9" p-id="12299"></path><path d="M198.4 243.2m-104.533333 0a104.533333 104.533333 0 1 0 209.066666 0 104.533333 104.533333 0 1 0-209.066666 0Z" fill="#FFFFFF" p-id="12300"></path><path d="M198.4 243.2m-68.266667 0a68.266667 68.266667 0 1 0 136.533334 0 68.266667 68.266667 0 1 0-136.533334 0Z" fill="#415A6B" p-id="12301"></path><path d="M667.733333 1024h-200.533333c-23.466667 0-42.666667-19.2-42.666667-42.666667V228.266667c0-23.466667 19.2-42.666667 42.666667-42.666667h200.533333c23.466667 0 42.666667 19.2 42.666667 42.666667V981.333333c0 23.466667-19.2 42.666667-42.666667 42.666667z" fill="#FFD15C" p-id="12302"></path><path d="M631.466667 699.733333h-128c-12.8 0-21.333333 8.533333-21.333334 21.333334v226.133333c0 12.8 8.533333 21.333333 21.333334 21.333333h128c12.8 0 21.333333-8.533333 21.333333-21.333333V721.066667c0-12.8-10.666667-21.333333-21.333333-21.333334z" fill="#FFFFFF" p-id="12303"></path><path d="M509.866667 761.6h115.2v25.6h-115.2zM509.866667 821.333333h115.2v25.6h-115.2zM509.866667 878.933333h115.2v25.6h-115.2z" fill="#E8EAE9" p-id="12304"></path><path d="M567.466667 384m-85.333334 0a85.333333 85.333333 0 1 0 170.666667 0 85.333333 85.333333 0 1 0-170.666667 0Z" fill="#FFFFFF" p-id="12305"></path><path d="M567.466667 384m-55.466667 0a55.466667 55.466667 0 1 0 110.933333 0 55.466667 55.466667 0 1 0-110.933333 0Z" fill="#415A6B" p-id="12306"></path><path d="M981.333333 1024h-200.533333c-23.466667 0-42.666667-19.2-42.666667-42.666667V228.266667c0-23.466667 19.2-42.666667 42.666667-42.666667H981.333333c23.466667 0 42.666667 19.2 42.666667 42.666667V981.333333c0 23.466667-19.2 42.666667-42.666667 42.666667z" fill="#F3705A" p-id="12307"></path><path d="M945.066667 699.733333h-128c-12.8 0-21.333333 8.533333-21.333334 21.333334v226.133333c0 12.8 8.533333 21.333333 21.333334 21.333333h128c12.8 0 21.333333-8.533333 21.333333-21.333333V721.066667c0-12.8-8.533333-21.333333-21.333333-21.333334z" fill="#FFFFFF" p-id="12308"></path><path d="M823.466667 761.6H938.666667v25.6h-115.2zM823.466667 821.333333H938.666667v25.6h-115.2zM823.466667 878.933333H938.666667v25.6h-115.2z" fill="#E8EAE9" p-id="12309"></path><path d="M881.066667 384m-85.333334 0a85.333333 85.333333 0 1 0 170.666667 0 85.333333 85.333333 0 1 0-170.666667 0Z" fill="#FFFFFF" p-id="12310"></path><path d="M881.066667 384m-55.466667 0a55.466667 55.466667 0 1 0 110.933333 0 55.466667 55.466667 0 1 0-110.933333 0Z" fill="#415A6B" p-id="12311"></path></svg>