<?xml version="1.0" standalone="no"?><!DOCTYPE svg PUBLIC "-//W3C//DTD SVG 1.1//EN" "http://www.w3.org/Graphics/SVG/1.1/DTD/svg11.dtd"><svg t="1748855410938" class="icon" viewBox="0 0 1024 1024" version="1.1" xmlns="http://www.w3.org/2000/svg" p-id="15880" xmlns:xlink="http://www.w3.org/1999/xlink" width="200" height="200"><path d="M819.2 929.28l-11.0592 94.72-74.5984-65.6896-176.8704-450.56a274.944 274.944 0 0 0 86.5792-27.3152L819.2 929.28z" fill="#3C7CDC" p-id="15881"></path><path d="M381.6704 480.4352c26.7008 13.6448 56.1664 23.04 87.5008 27.3152l-176.8704 450.56L216.7808 1024 204.8 929.28l176.8704-448.8448z" fill="#083043" p-id="15882"></path><path d="M328.2432 256c0-79.36 58.9312-145.92 138.1632-164.6848V0h92.1088v91.3152C637.7472 110.08 696.6784 176.64 696.6784 256c0 93.8752-82.8928 170.6752-184.2176 170.6752-101.3248 0-184.2176-76.8-184.2176-170.6752z m184.2176 85.3248c50.6624 0 92.1088-38.4 92.1088-85.3248 0-46.9248-41.4464-85.3248-92.1088-85.3248-50.6624 0-92.1088 38.4-92.1088 85.3248 0 46.9248 41.4464 85.3248 92.1088 85.3248z" fill="#3BD981" p-id="15883"></path></svg>