<?xml version="1.0" standalone="no"?><!DOCTYPE svg PUBLIC "-//W3C//DTD SVG 1.1//EN" "http://www.w3.org/Graphics/SVG/1.1/DTD/svg11.dtd"><svg t="1748855258618" class="icon" viewBox="0 0 1024 1024" version="1.1" xmlns="http://www.w3.org/2000/svg" p-id="3660" xmlns:xlink="http://www.w3.org/1999/xlink" width="200" height="200"><path d="M512 562.28352c27.79648 0 50.28352-22.52288 50.28352-50.28352a49.11616 49.11616 0 0 0-5.48352-22.41536l408.90368-213.57568C880.4608 112.34816 709.34016 0.47616 512 0.47616v461.24032c-27.77088 0.01024-50.27328 22.53824-50.25792 50.30912a50.2784 50.2784 0 0 0 50.25792 50.25792z" fill="#FC6238" p-id="3661"></path><path d="M466.97984 232.92416v-34.19136C313.6 220.672 195.43552 352.80384 195.43552 512c0 174.52032 142.04416 316.55936 316.56448 316.55936s316.55936-142.03904 316.55936-316.55936a315.8272 315.8272 0 0 0-17.69984-104.22784l-30.27968 15.872A282.752 282.752 0 0 1 794.7008 512c0 155.86816-126.86848 282.73664-282.73664 282.73664S229.22752 667.86816 229.22752 512c0-140.57984 103.09632-257.46432 237.71648-279.07584h0.03584z" fill="#3399FF" p-id="3662"></path><path d="M984.90368 316.928l-40.22272 21.02784A464.1792 464.1792 0 0 1 978.50368 512c0 257.13664-209.26464 466.39616-466.39616 466.39616-257.20832 0-466.50368-209.25952-466.50368-466.39616 0-241.95584 185.27232-441.49248 421.376-464.23552V2.63168C205.60384 25.49248 0.44032 244.66432 0.44032 512c0 282.51648 229.0432 511.55968 511.55968 511.55968s511.55968-229.07904 511.55968-511.55968c0-69.12-13.85984-134.94784-38.656-195.072z" fill="#3399FF" p-id="3663"></path></svg>