<?xml version="1.0" standalone="no"?><!DOCTYPE svg PUBLIC "-//W3C//DTD SVG 1.1//EN" "http://www.w3.org/Graphics/SVG/1.1/DTD/svg11.dtd"><svg t="1748855325126" class="icon" viewBox="0 0 1024 1024" version="1.1" xmlns="http://www.w3.org/2000/svg" p-id="7263" xmlns:xlink="http://www.w3.org/1999/xlink" width="200" height="200"><path d="M512.001535 97.944729c108.87057 0 211.220632 42.395576 288.207028 119.374808 76.980255 76.982302 119.376854 179.339528 119.376854 288.209075 0 108.868523-42.397622 211.221656-119.376854 288.209074-76.983325 76.980255-179.336458 119.372761-288.207028 119.372761-108.871593 0-211.224726-42.393529-288.209074-119.372761-76.982302-76.982302-119.377878-179.340551-119.377878-288.209074 0-108.869546 42.396599-211.222679 119.377878-288.209075C300.776809 140.339282 403.131989 97.944729 512.001535 97.944729m0-66.075904c-261.596973 0-473.662857 212.06179-473.662857 473.658763 0 261.596973 212.063837 473.659787 473.662857 473.659787 261.596973 0 473.658763-212.06179 473.658763-473.659787 0-261.59595-212.06179-473.658763-473.658763-473.658763z" fill="#F7963E" p-id="7264"></path><path d="M476.315778 849.632717c-7.447623 0-14.851243-3.13234-20.080338-9.228175-9.498328-11.084453-8.216125-27.767414 2.868328-37.270859l169.295777-145.107888c57.155744-52.077076 78.893838-107.411335 83.574441-120.907721V369.002169c-91.889827-6.268774-165.507498-58.239426-199.179389-86.476537-64.559365 56.882522-158.185742 76.155471-200.167902 82.182744-19.98824 161.498184 5.613858 201.403033 8.591679 205.846228 0.603751 0.503467 1.187035 1.037632 1.743714 1.595334L477.372853 729.630622c10.321066 10.31902 10.321066 27.054169 0 37.378306-10.321066 10.321066-27.057239 10.321066-37.378305 0L286.818913 610.763374c-8.040117-6.617721-19.312858-21.63781-26.082029-55.488778-9.715269-48.568159-11.022031-121.917724 2.168386-218.015386 1.693572-12.355399 11.793604-21.845541 24.229844-22.765493 1.354857-0.103354 138.842185-11.391445 205.114565-85.914742a26.421766 26.421766 0 0 1 19.153222-8.858761 26.384927 26.384927 0 0 1 19.533892 7.985881c0.880043 0.89437 92.40455 92.962252 206.558449 88.934519 7.166213-0.228197 14.119579 2.422166 19.273972 7.407713a26.414603 26.414603 0 0 1 8.066723 19.004843v198.22669c0 2.422166-0.330528 4.826935-0.98749 7.157004-0.893346 3.176342-22.765493 78.590939-100.169397 148.95552-0.192382 0.176009-0.38374 0.343831-0.578168 0.511653L493.504252 843.271846a26.325575 26.325575 0 0 1-17.188474 6.360871z" fill="#0094E3" p-id="7265"></path><path d="M620.018667 479.096612h-89.202624v-96.398513c0-14.59644-11.833513-26.429952-26.429953-26.429953-14.597463 0-26.430976 11.833513-26.430976 26.429953v96.398513h-89.202624c-14.595416 0-26.429952 11.834536-26.429953 26.430976 0 14.59644 11.834536 26.430976 26.429953 26.430976h89.202624v84.206844c0 14.59644 11.833513 26.429952 26.430976 26.429952 14.59644 0 26.429952-11.833513 26.429953-26.429952v-84.206844h89.202624c14.59644 0 26.430976-11.833513 26.430976-26.430976 0-14.595416-11.834536-26.430976-26.430976-26.430976z" fill="#0094E3" p-id="7266"></path></svg>