<?xml version="1.0" standalone="no"?><!DOCTYPE svg PUBLIC "-//W3C//DTD SVG 1.1//EN" "http://www.w3.org/Graphics/SVG/1.1/DTD/svg11.dtd"><svg t="1748855306910" class="icon" viewBox="0 0 1024 1024" version="1.1" xmlns="http://www.w3.org/2000/svg" p-id="6054" xmlns:xlink="http://www.w3.org/1999/xlink" width="200" height="200"><path d="M512 0l443.402449 256v512L512 1024 68.597551 768v-512z" fill="#FFFEFE" p-id="6055"></path><path d="M512 0l443.402449 256v512L512 1024 68.597551 768v-512L512 0z m0 12.068571L79.036082 262.029061v499.931429L512 1011.92098l432.953469-249.96049V262.029061L512 12.068571z" fill="#2F54EB" p-id="6056"></path><path d="M513.462857 45.212735V94.040816L150.047347 303.020408v417.959184l-42.579592 31.346939V278.642939z" fill="#B5CBF9" p-id="6057"></path><path d="M512 94.040816l361.963102 208.979592v417.959184L512 929.959184 150.036898 720.979592V303.020408L512 94.040816z m0 12.068572L160.475429 309.049469v405.890613L512 917.880163l351.514122-202.940081V309.049469L512 106.109388z" fill="#C6D6FF" p-id="6058"></path><path d="M568.52898 461.322449c-3.855673 1.003102-7.920327 0.731429-11.598368-0.773225l-0.794122-0.167183c-7.899429-4.043755-11.274449-13.824-8.202449-25.056653l0.658286-1.703184c4.952816-9.738449 7.053061-20.344163 6.760489-33.990531-0.156735-21.817469-8.777143-42.527347-24.753632-58.576979a82.546939 82.546939 0 0 0-58.179919-25.129796 81.502041 81.502041 0 0 0-57.814204 24.304326c-15.840653 15.798857-24.220735 36.780408-24.419265 58.702368 0.10449 24.481959 10.187755 46.393469 29.173551 63.550694 3.594449 3.667592 5.517061 8.077061 5.726041 13.040326 0.114939 4.608-1.724082 9.268245-5.308082 12.591021-3.009306 3.082449-8.871184 6.258939-13.437388 6.258938-2.633143-0.062694-7.188898 0.031347-11.316245-4.263183-24.941714-20.960653-39.915102-54.146612-39.758367-89.108898a118.940735 118.940735 0 0 1 34.178612-84.323266c22.005551-22.360816 51.691102-34.586122 83.069388-34.554775 65.118041 0.146286 118.177959 53.895837 118.282449 119.463184a129.64049 129.64049 0 0 1-10.208653 50.729796l-0.856816 1.358367-1.201633 1.086694a19.121633 19.121633 0 0 1-10.010122 6.561959z m107.885714 73.247347l1.671837 126.808816-0.877715 0.867266c-0.282122 0.292571-0.574694 0.574694-0.574694 0.867265v0.574694l-0.292571 0.574694-20.835265 40.155428c1.149388 3.260082 2.309224 6.729143 2.309224 9.707102 0 13.228408-11.776 24.931265-24.941714 24.931266H467.800816c-13.228408 0-24.941714-11.776-24.941714-24.931266 0-3.845224 0.856816-6.530612 1.724082-8.839837l-59.527837-74.208653c-9.905633-13.165714-21.336816-39.288163-2.612245-55.128816 6.164898-4.409469 12.298449-6.436571 20.845714-6.436571h0.574694c10.271347 1.734531 20.553143 8.171102 30.239347 19.017143l0.574694 0.585142 9.696653 10.563919V432.222041c0-15.777959 11.138612-40.730122 40.730123-40.730123 14.315102 0 23.437061 6.144 28.421224 11.138613 12.580571 12.580571 12.580571 29.298939 12.580571 29.884081v54.251102c4.419918-2.110694 9.707102-3.260082 16.133225-3.260081 9.613061 0 17.585633 3.260082 24.011755 9.696653 0.867265 0.929959 1.734531 1.797224 2.309225 2.957061 7.606857-9.613061 17.010939-13.740408 28.149551-12.580571 16.425796 1.452408 24.304327 14.03298 28.713795 24.586448 4.921469-2.96751 10.490776-5.558857 19.027592-5.558857 26.112 0 31.973878 27.846531 31.973878 31.973878z" fill="#2F54EB" p-id="6059"></path></svg>