<?xml version="1.0" standalone="no"?><!DOCTYPE svg PUBLIC "-//W3C//DTD SVG 1.1//EN" "http://www.w3.org/Graphics/SVG/1.1/DTD/svg11.dtd"><svg t="1748855290424" class="icon" viewBox="0 0 1087 1024" version="1.1" xmlns="http://www.w3.org/2000/svg" p-id="4872" xmlns:xlink="http://www.w3.org/1999/xlink" width="212.3046875" height="200"><path d="M863.479419 501.246156L561.06525 9.752997a20.385371 20.385371 0 0 0-34.786046 0L224.4261 501.433178a20.385371 20.385371 0 0 0 0 21.320479l299.2348 491.493159a20.385371 20.385371 0 0 0 34.786045 0l305.032474-491.493159a20.385371 20.385371 0 0 0 0-21.507501z m-35.160089 20.385371L555.828641 959.0754a18.702175 18.702175 0 0 1-30.858589 0l-266.13195-437.630895a18.702175 18.702175 0 0 1 0-18.702175l269.31132-437.630895a18.702175 18.702175 0 0 1 30.858588 0l269.31132 437.256851a18.702175 18.702175 0 0 1 0 19.263241z" fill="#2053CD" p-id="4873"></path><path d="M251.918297 492.830177H847.208527v38.339459H251.918297z" fill="#2053CD" p-id="4874"></path><path d="M522.725791 31.821564H561.06525v960.169664h-38.339459z" fill="#2053CD" p-id="4875"></path><path d="M639.614385 515.272787l-91.82768 147.560161a6.171718 6.171718 0 0 1-10.473218 0l-89.77044-147.560161a6.171718 6.171718 0 0 1 0-6.358739l90.705549-147.560161a6.171718 6.171718 0 0 1 10.473218 0l90.892571 147.373139a6.171718 6.171718 0 0 1 0 6.545761zM1084.726149 928.216811l-177.296619-290.818821a22.068566 22.068566 0 0 0-37.40435 0l-176.922575 290.818821a22.068566 22.068566 0 0 0 18.702175 33.476893h353.284085A22.068566 22.068566 0 0 0 1084.726149 928.216811z m-361.513042 5.236609L888.540334 654.603991l166.075313 278.475385zM394.241849 928.216811l-176.548532-290.818821a22.068566 22.068566 0 0 0-37.40435 0L3.17937 928.216811a22.068566 22.068566 0 0 0 18.702175 33.476893h353.471107a22.068566 22.068566 0 0 0 18.889197-33.476893z m-361.513043 5.236609L198.80412 654.603991l166.075314 278.475385z" fill="#7F1084" p-id="4876"></path></svg>